HIERARCHY
ROOT Hips
{
	OFFSET 0.000000 89.005402 0.000000
	CHANNELS 6 Xposition Yposition Zposition Xrotation Yrotation Zrotation
	JOINT Spine
	{
		OFFSET 0.116900 10.681000 0.373400
		CHANNELS 3 Xrotation Yrotation Zrotation
		JOINT Spine1
		{
			OFFSET 0.000000 13.840401 0.053500
			CHANNELS 3 Xrotation Yrotation Zrotation
			JOINT Spine2
			{
				OFFSET 0.000000 14.712700 -0.366200
				CHANNELS 3 Xrotation Yrotation Zrotation
				JOINT Neck
				{
					OFFSET 0.000000 35.415497 -3.314200
					CHANNELS 3 Xrotation Yrotation Zrotation
					JOINT Head
					{
						OFFSET 0.000000 16.899200 1.218300
						CHANNELS 3 Xrotation Yrotation Zrotation
						JOINT HeadTop_End
						{
							OFFSET 0.000000 22.206207 2.192500
							CHANNELS 3 Xrotation Yrotation Zrotation
							End Site
							{
								OFFSET 0.000000 22.314178 0.000000
							}
						}
					}
				}
				JOINT LeftShoulder
				{
					OFFSET 12.896400 26.716293 -4.548400
					CHANNELS 3 Xrotation Yrotation Zrotation
					JOINT LeftArm
					{
						OFFSET 19.027000 -4.857010 -1.718400
						CHANNELS 3 Xrotation Yrotation Zrotation
						JOINT LeftForeArm
						{
							OFFSET 24.179897 0.000000 0.000000
							CHANNELS 3 Xrotation Yrotation Zrotation
							JOINT LeftHand
							{
								OFFSET 27.156403 0.000000 0.000000
								CHANNELS 3 Xrotation Yrotation Zrotation
								JOINT LeftHandIndex1
								{
									OFFSET 16.441200 0.000000 0.000000
									CHANNELS 3 Xrotation Yrotation Zrotation
									JOINT LeftHandIndex2
									{
										OFFSET 4.821899 0.000000 0.000000
										CHANNELS 3 Xrotation Yrotation Zrotation
										JOINT LeftHandIndex3
										{
											OFFSET 6.386497 0.000000 0.000000
											CHANNELS 3 Xrotation Yrotation Zrotation
											JOINT LeftHandIndex4
											{
												OFFSET 5.188988 0.000000 0.000000
												CHANNELS 3 Xrotation Yrotation Zrotation
												End Site
												{
													OFFSET -0.178703 5.185913 0.000177
												}
											}
										}
									}
								}
								JOINT LeftHandThumb1
								{
									OFFSET 6.534897 -5.032593 5.900300
									CHANNELS 3 Xrotation Yrotation Zrotation
									JOINT LeftHandThumb2
									{
										OFFSET 3.818176 -2.204422 2.204423
										CHANNELS 3 Xrotation Yrotation Zrotation
										JOINT LeftHandThumb3
										{
											OFFSET 3.252098 -1.877594 1.877601
											CHANNELS 3 Xrotation Yrotation Zrotation
											JOINT LeftHandThumb4
											{
												OFFSET 5.251778 -3.032120 3.032117
												CHANNELS 3 Xrotation Yrotation Zrotation
												End Site
												{
													OFFSET 0.000023 6.780014 0.000000
												}
											}
										}
									}
								}
							}
						}
					}
				}
				JOINT RightShoulder
				{
					OFFSET -12.896300 26.716293 -4.548400
					CHANNELS 3 Xrotation Yrotation Zrotation
					JOINT RightArm
					{
						OFFSET -19.027000 -4.857010 -1.718400
						CHANNELS 3 Xrotation Yrotation Zrotation
						JOINT RightForeArm
						{
							OFFSET -24.179897 0.000000 0.000000
							CHANNELS 3 Xrotation Yrotation Zrotation
							JOINT RightHand
							{
								OFFSET -27.156403 0.000000 0.000000
								CHANNELS 3 Xrotation Yrotation Zrotation
								JOINT RightHandThumb1
								{
									OFFSET -6.591202 -4.852203 5.988100
									CHANNELS 3 Xrotation Yrotation Zrotation
									JOINT RightHandThumb2
									{
										OFFSET -3.818176 -2.204422 2.204423
										CHANNELS 3 Xrotation Yrotation Zrotation
										JOINT RightHandThumb3
										{
											OFFSET -3.252098 -1.877594 1.877601
											CHANNELS 3 Xrotation Yrotation Zrotation
											JOINT RightHandThumb4
											{
												OFFSET -5.251778 -3.032120 3.032117
												CHANNELS 3 Xrotation Yrotation Zrotation
												End Site
												{
													OFFSET -0.000023 6.780014 0.000000
												}
											}
										}
									}
								}
								JOINT RightHandIndex1
								{
									OFFSET -16.029404 0.000000 0.000000
									CHANNELS 3 Xrotation Yrotation Zrotation
									JOINT RightHandIndex2
									{
										OFFSET -5.213303 0.000000 0.000000
										CHANNELS 3 Xrotation Yrotation Zrotation
										JOINT RightHandIndex3
										{
											OFFSET -6.386528 0.000000 0.000000
											CHANNELS 3 Xrotation Yrotation Zrotation
											JOINT RightHandIndex4
											{
												OFFSET -5.189026 0.000000 0.000000
												CHANNELS 3 Xrotation Yrotation Zrotation
												End Site
												{
													OFFSET 0.236702 5.183624 0.001972
												}
											}
										}
									}
								}
							}
						}
					}
				}
			}
		}
	}
	JOINT LeftUpLeg
	{
		OFFSET 14.073000 -7.904099 -1.463000
		CHANNELS 3 Xrotation Yrotation Zrotation
		JOINT LeftLeg
		{
			OFFSET -0.109806 -34.073280 4.093200
			CHANNELS 3 Xrotation Yrotation Zrotation
			JOINT LeftFoot
			{
				OFFSET 0.109806 -29.899420 -6.319000
				CHANNELS 3 Xrotation Yrotation Zrotation
				JOINT LeftToeBase
				{
					OFFSET 1.551100 -14.988700 20.535801
					CHANNELS 3 Xrotation Yrotation Zrotation
					JOINT LeftToe_End
					{
						OFFSET 0.221200 0.570800 13.248301
						CHANNELS 3 Xrotation Yrotation Zrotation
						End Site
						{
							OFFSET 0.000000 13.262435 0.000000
						}
					}
				}
			}
		}
	}
	JOINT RightUpLeg
	{
		OFFSET -13.839300 -7.904099 -1.463000
		CHANNELS 3 Xrotation Yrotation Zrotation
		JOINT RightLeg
		{
			OFFSET 0.109694 -34.073219 4.093300
			CHANNELS 3 Xrotation Yrotation Zrotation
			JOINT RightFoot
			{
				OFFSET -0.109694 -29.899384 -6.319200
				CHANNELS 3 Xrotation Yrotation Zrotation
				JOINT RightToeBase
				{
					OFFSET -1.551100 -14.988700 20.535801
					CHANNELS 3 Xrotation Yrotation Zrotation
					JOINT RightToe_End
					{
						OFFSET -0.221200 0.570900 13.248299
						CHANNELS 3 Xrotation Yrotation Zrotation
						End Site
						{
							OFFSET 0.000000 13.262440 0.000000
						}
					}
				}
			}
		}
	}
}
MOTION
Frames: 8
Frame Time: 0.033333
-6.165738 66.336060 36.704773 -8.813569 46.809974 360.514624 6.135212 13.547492 0.079654 3.251297 2.243325 2.167534 3.185685 2.161987 2.273349 -1.071421 0.631704 -9.581368 3.915856 3.010521 5.502893 0.000001 -0.000001 0.000000 0.284744 5.142041 -6.139181 14.193686 45.452464 -74.856524 0.000002 0.000012 0.000012 89.007357 -22.503112 20.577951 0.480804 2.532303 -21.498125 0.300034 2.014196 -16.943097 0.181554 1.573868 -13.160306 0.000001 0.000001 -0.000001 -1.540022 3.690194 6.142366 3.946760 7.971366 0.752833 -0.575611 1.586248 2.542377 -0.000001 0.000001 0.000001 0.640123 -2.340842 8.349107 -20.092458 -8.171586 -21.549643 -0.000000 135.246393 -0.000007 -28.873511 26.870511 -45.037998 10.694384 -11.670736 -1.922946 4.645012 -8.656767 -0.231316 -1.269818 0.126070 -2.098675 -0.000000 -0.000000 0.000000 0.550329 -2.715757 22.906482 0.474459 -2.528950 21.248987 0.313052 -2.066738 17.224397 0.000001 0.000001 0.000001 -59.744034 26.152103 22.656825 77.879238 2.721438 1.322473 -26.521257 6.356330 15.045643 -0.000034 0.000000 0.000004 -0.000000 0.000000 0.000000 9.076455 -11.286242 -19.878895 59.236578 8.641153 0.270925 -49.816053 -30.474060 30.773486 -22.130581 0.000004 -0.000005 -0.000002 0.000000 -0.000001 
-5.041691 67.442383 33.243858 -9.066522 37.916477 361.346514 5.232661 12.633792 0.850919 2.897159 2.018380 2.009822 2.846278 1.937615 2.095946 1.677958 -0.868217 -7.961282 2.851397 -4.286647 8.490713 -0.000000 0.000004 -0.000001 0.400551 3.560707 -6.566767 12.410443 45.727727 -71.427209 -0.000001 -0.000021 -0.000004 88.218594 -19.535779 19.492335 0.480805 2.532305 -21.498123 0.300035 2.014195 -16.943097 0.181555 1.573865 -13.160300 -0.000001 0.000001 -0.000001 -1.540022 3.690193 6.142365 3.946761 7.971368 0.752835 -0.575611 1.586249 2.542378 -0.000000 0.000000 0.000000 0.635576 -2.136703 7.894882 -20.249298 -10.155170 -20.106410 -0.000000 136.299594 -0.000006 -30.100166 24.116696 -42.757182 10.694382 -11.670735 -1.922943 4.645012 -8.656766 -0.231315 -1.269818 0.126073 -2.098677 -0.000000 -0.000001 0.000003 0.550328 -2.715760 22.906484 0.474461 -2.528953 21.248988 0.313053 -2.066737 17.224400 0.000000 -0.000002 -0.000000 -56.820702 27.986104 20.594443 74.444793 4.489977 1.282214 -26.003229 3.017554 14.739019 -0.000496 0.000001 0.000005 -0.000000 -0.000000 0.000000 18.394299 -14.605576 -15.024483 53.523763 -2.460117 -0.033172 -37.738752 -30.376187 32.236263 -22.273886 0.000007 -0.000005 -0.000000 -0.000000 -0.000000 
-3.982353 68.180786 30.772434 -7.797166 27.890454 361.195293 4.516080 11.436428 2.341386 2.425662 1.780185 2.066227 2.381764 1.724235 2.128349 5.200740 -2.540652 -6.923146 1.449757 -12.265036 9.310324 -0.000001 -0.000001 -0.000001 0.564089 1.897920 -7.208972 12.547945 44.590815 -70.064893 -0.000003 0.000003 -0.000008 66.690998 -21.737835 16.234605 0.480806 2.532303 -21.498121 0.300037 2.014197 -16.943100 0.181555 1.573866 -13.160310 -0.000002 0.000000 0.000001 -1.540021 3.690192 6.142369 3.946761 7.971366 0.752831 -0.575610 1.586248 2.542380 0.000001 -0.000001 -0.000001 0.657206 -1.649318 7.344881 -20.024457 -9.749300 -18.858383 0.000006 136.264842 -0.000005 -31.579455 21.149828 -41.532799 10.694382 -11.670735 -1.922945 4.645013 -8.656769 -0.231317 -1.269818 0.126072 -2.098674 -0.000000 -0.000001 -0.000001 0.550330 -2.715758 22.906481 0.474463 -2.528953 21.248990 0.313055 -2.066736 17.224397 -0.000001 -0.000000 -0.000000 -55.891831 26.564323 18.315887 73.491715 4.009457 1.023904 -27.993650 -0.170646 13.365578 -0.003589 -0.000012 -0.000004 0.000000 -0.000000 -0.000000 23.823360 -16.718194 -13.337367 48.418695 -11.284417 -0.802575 -27.550756 -30.511729 32.855170 -17.277401 0.000007 0.000009 -0.000000 -0.000001 -0.000000 
-3.287541 68.283051 28.749268 -5.279602 16.000493 360.975088 4.243170 10.201124 3.835550 1.945592 1.562367 2.340074 1.900434 1.547305 2.379046 9.026063 -3.901934 -6.397012 -1.697380 -18.035219 6.600794 0.000001 0.000001 -0.000000 0.743413 0.443177 -7.870953 14.406486 42.801449 -70.715223 -0.000009 -0.000006 0.000008 34.394401 -26.774193 12.552879 0.480804 2.532307 -21.498123 0.300032 2.014197 -16.943100 0.181556 1.573867 -13.160308 -0.000003 -0.000000 0.000001 -1.540018 3.690193 6.142369 3.946757 7.971368 0.752833 -0.575609 1.586245 2.542375 -0.000002 0.000002 -0.000001 0.683693 -1.162270 6.807047 -19.317650 -5.216589 -17.186510 0.000004 134.308444 -0.000004 -32.324143 18.967155 -41.978520 10.694383 -11.670733 -1.922942 4.645014 -8.656767 -0.231316 -1.269816 0.126075 -2.098676 -0.000000 0.000004 -0.000003 0.550329 -2.715756 22.906487 0.474463 -2.528950 21.248988 0.313051 -2.066738 17.224397 -0.000001 -0.000001 0.000000 -57.663879 22.777054 17.138874 73.571950 0.530366 0.605550 -28.495363 -1.909793 10.626531 0.004008 0.000008 0.000000 -0.000000 0.000000 -0.000000 22.310980 -16.980378 -15.413934 47.957029 -14.305299 -1.172281 -22.697682 -33.937704 32.183083 -19.412914 0.000023 -0.000002 -0.000000 -0.000000 0.000002 
-2.738147 67.990822 26.907059 -2.255847 3.748101 361.312144 4.718649 9.013766 4.466314 1.713651 1.364894 2.615918 1.665673 1.386955 2.640177 12.272329 -4.414047 -6.122587 -7.315919 -18.874295 0.844506 0.000001 0.000001 -0.000000 0.894900 -0.579984 -8.358007 16.111378 41.559864 -71.400762 0.000000 0.000001 -0.000006 15.032437 -30.626452 12.074664 0.480806 2.532306 -21.498130 0.300038 2.014196 -16.943097 0.181556 1.573866 -13.160306 -0.000000 -0.000001 -0.000000 -1.540024 3.690199 6.142364 3.946756 7.971368 0.752831 -0.575610 1.586251 2.542381 -0.000002 0.000000 0.000002 0.680375 -1.033575 6.462227 -18.932205 3.344876 -13.760978 0.000002 130.070284 -0.000004 -30.020789 15.178224 -41.893020 10.694382 -11.670736 -1.922944 4.645009 -8.656766 -0.231313 -1.269814 0.126073 -2.098676 -0.000000 0.000001 -0.000002 0.550328 -2.715757 22.906481 0.474460 -2.528955 21.248987 0.313053 -2.066733 17.224398 -0.000001 0.000000 -0.000001 -60.824385 18.794263 17.692686 71.978384 -5.150508 0.091644 -22.717465 -3.583399 7.206156 0.004748 0.000008 -0.000001 -0.000001 0.000002 0.000000 20.113558 -16.360436 -18.291907 46.766695 -14.195376 -0.787284 -22.476580 -34.939122 30.841429 -18.050844 -0.000009 -0.000015 -0.000001 0.000001 -0.000001 
-2.234872 67.237167 25.210918 0.100572 -4.586806 361.960110 6.019180 7.614955 3.980568 1.842741 1.131830 2.656086 1.798739 1.178251 2.673864 14.574323 -3.901054 -6.087509 -13.770463 -14.018221 -5.385056 0.000001 0.000000 -0.000000 0.990280 -1.092817 -8.640758 14.206512 41.484465 -68.444253 -0.000002 -0.000015 -0.000004 23.130750 -27.771898 17.403744 0.480806 2.532303 -21.498119 0.300034 2.014197 -16.943099 0.181555 1.573866 -13.160303 -0.000003 0.000000 -0.000001 -1.540020 3.690193 6.142373 3.946757 7.971366 0.752831 -0.575612 1.586251 2.542373 -0.000002 -0.000001 0.000002 0.644202 -1.273698 6.346674 -19.901105 13.883253 -7.453078 0.000002 124.422168 -0.000004 -21.362245 6.433040 -37.680624 10.694380 -11.670733 -1.922942 4.645009 -8.656764 -0.231319 -1.269820 0.126071 -2.098675 -0.000003 0.000000 -0.000001 0.550325 -2.715756 22.906482 0.474464 -2.528951 21.248987 0.313054 -2.066740 17.224398 0.000000 0.000004 0.000002 -64.247047 16.612461 18.927793 68.444199 -7.953573 -0.346608 -11.591549 -12.031918 4.330339 -0.012180 0.000003 -0.000001 0.000000 -0.000000 0.000000 21.117003 -15.882782 -19.024206 44.755446 -14.542111 -0.356966 -20.829874 -35.336800 31.389292 -20.238945 0.000011 -0.000001 -0.000001 0.000003 -0.000002 
-1.903231 66.312553 23.706619 2.543596 -12.172514 362.988983 7.755248 5.712483 2.948589 2.207406 0.828902 2.463837 2.175261 0.891293 2.477471 16.249251 -2.775380 -6.560059 -19.177283 -5.745873 -10.112460 0.000001 -0.000002 0.000000 1.030750 -1.242411 -8.779711 11.607438 43.040119 -64.564938 0.000005 -0.000003 0.000003 45.385197 -21.743660 19.274403 0.480805 2.532302 -21.498123 0.300032 2.014196 -16.943100 0.181555 1.573868 -13.160304 -0.000000 0.000003 -0.000000 -1.540021 3.690193 6.142363 3.946759 7.971364 0.752838 -0.575608 1.586250 2.542381 0.000001 0.000002 0.000004 0.597731 -1.579836 6.184566 -22.559130 23.400450 1.388083 0.000002 119.331915 -0.000002 -5.158450 -3.036888 -27.777416 10.694383 -11.670731 -1.922946 4.645015 -8.656768 -0.231320 -1.269821 0.126073 -2.098675 -0.000000 0.000001 -0.000001 0.550327 -2.715754 22.906484 0.474462 -2.528952 21.248990 0.313052 -2.066735 17.224397 -0.000000 -0.000002 -0.000002 -67.023765 14.752748 20.100311 64.981839 -8.496752 -0.705294 -2.022882 -21.153130 2.823263 -0.020555 0.000001 -0.000003 -0.000000 -0.000001 -0.000000 21.683530 -14.540633 -20.775576 43.459773 -15.103000 0.316240 -15.594847 -35.845762 33.785565 -23.921756 0.000026 0.000012 0.000000 -0.000000 0.000003 
-1.703782 65.578346 22.145208 5.122177 -18.931722 364.484767 9.248975 3.750717 2.098030 2.600183 0.532243 2.255865 2.580730 0.607010 2.264884 17.646905 -1.710423 -7.678224 -23.177164 2.499943 -13.413348 0.000001 0.000001 -0.000000 1.035178 -1.329341 -8.756594 8.358739 45.512761 -60.418849 -0.000004 -0.000015 0.000013 68.664226 -22.430398 19.060285 0.480806 2.532304 -21.498125 0.300036 2.014195 -16.943097 0.181554 1.573862 -13.160307 0.000000 0.000002 -0.000002 -1.540015 3.690194 6.142365 3.946765 7.971366 0.752832 -0.575608 1.586248 2.542380 -0.000002 0.000004 0.000000 0.543986 -1.749366 5.612725 -26.257303 29.881173 10.804804 0.000001 116.460845 -0.000010 11.790405 -5.588291 -17.699727 10.694385 -11.670737 -1.922943 4.645011 -8.656766 -0.231318 -1.269817 0.126072 -2.098677 0.000001 0.000000 -0.000002 0.550328 -2.715759 22.906481 0.474464 -2.528953 21.248988 0.313052 -2.066740 17.224397 -0.000000 -0.000000 0.000004 -69.063806 10.901761 20.488264 64.388521 -9.115943 -0.985237 -1.951012 -26.597397 -1.091463 -0.000020 -0.000000 0.000005 0.000000 0.000000 -0.000000 21.148902 -13.462398 -23.615978 42.200686 -15.395111 1.608069 -9.746636 -35.922796 35.236174 -26.574717 -0.000014 -0.000005 -0.000000 0.000001 -0.000001 
